<?xml version="1.0" standalone="no"?>
<!DOCTYPE svg PUBLIC "-//W3C//DTD SVG 20010904//EN"
 "http://www.w3.org/TR/2001/REC-SVG-20010904/DTD/svg10.dtd">
<svg version="1.0" xmlns="http://www.w3.org/2000/svg"
 width="700.000000pt" height="700.000000pt" viewBox="0 0 700.000000 700.000000"
 preserveAspectRatio="xMidYMid meet">
<metadata>
Created by potrace 1.11, written by Peter Selinger 2001-2013
</metadata>
<g transform="translate(0.000000,700.000000) scale(0.100000,-0.100000)"
fill="#000000" stroke="none">
<path d="M5125 6703 c-228 -25 -413 -83 -597 -186 -165 -92 -348 -257 -462
-417 -56 -78 -186 -320 -186 -347 0 -6 -5 -24 -12 -40 -14 -33 -9 -18 -36
-128 -29 -120 -37 -195 -36 -340 0 -243 42 -422 149 -640 214 -437 643 -743
1125 -802 80 -10 295 -9 370 1 320 44 616 191 842 419 43 43 90 95 105 115 16
20 30 39 33 42 17 15 102 154 132 215 69 140 127 324 144 465 10 80 11 299 2
360 -4 25 -10 65 -13 90 -13 98 -65 253 -130 385 -196 404 -581 698 -1030 787
-93 18 -320 31 -400 21z"/>
<path d="M1405 6123 c-77 -11 -140 -30 -205 -61 -146 -70 -272 -229 -311 -392
-11 -44 -13 -462 -13 -2170 0 -1964 1 -2120 17 -2179 23 -85 69 -176 116 -230
l38 -44 1433 1433 1432 1432 -49 52 c-179 186 -329 439 -414 697 -21 65 -41
130 -43 145 -3 15 -10 51 -16 79 -38 184 -45 501 -14 650 3 11 7 38 10 60 12
83 76 290 127 408 l53 122 -1070 0 c-589 0 -1080 -1 -1091 -2z"/>
<path d="M5197 3354 c-1 -1 -54 -4 -117 -8 -63 -3 -126 -8 -140 -10 -14 -2
-43 -7 -66 -10 -22 -3 -88 -14 -145 -26 -346 -70 -678 -212 -979 -418 -105
-72 -157 -123 -193 -191 -58 -108 -57 -80 -54 -985 l2 -831 1035 0 c1036 -1
1125 2 1195 34 114 52 147 73 211 136 80 80 123 150 155 256 l23 74 1 913 0
914 -55 18 c-50 17 -119 36 -210 61 -49 13 -236 47 -290 54 -121 13 -364 26
-373 19z"/>
</g>
</svg>
